<?xml version="1.0" encoding="UTF-8" standalone="no"?>
<!DOCTYPE svg PUBLIC "-//W3C//DTD SVG 1.1//EN" "http://www.w3.org/Graphics/SVG/1.1/DTD/svg11.dtd">
<svg xmlns="http://www.w3.org/2000/svg" version="1.1" viewBox="0.00 0.00 200.00 202.00">
<g stroke-width="2.00" fill="none" stroke-linecap="butt">
<path stroke="#c4c5c3" stroke-opacity="0.992" vector-effect="non-scaling-stroke" d="
  M 197.44 202.00
  Q 197.75 201.95 197.93 201.73
  Q 198.28 201.30 197.73 201.28
  Q 194.11 201.13 187.00 201.13
  Q 107.47 201.15 27.94 201.09
  C 19.51 201.08 10.63 200.58 2.25 201.26
  Q -1.51 201.56 2.30 201.57
  C 62.76 201.74 123.22 201.74 183.68 201.68
  C 187.53 201.68 192.56 201.23 197.19 202.00"
/>
<path stroke="#808080" vector-effect="non-scaling-stroke" d="
  M 162.75 1.71
  L 2.71 1.78
  Q 2.26 1.78 1.99 2.14
  L 1.71 2.50"
/>
<path stroke="#e3e6e4" vector-effect="non-scaling-stroke" d="
  M 1.71 2.50
  Q 1.51 2.43 1.34 2.48
  Q 0.92 2.59 0.95 3.02
  C 1.55 12.64 0.50 23.84 0.48 31.61
  C 0.39 63.87 1.06 96.15 0.63 128.40
  C 0.52 136.13 1.43 145.96 0.93 154.83
  C 0.70 158.93 1.33 163.18 1.09 167.49
  C 0.58 177.01 -0.14 187.33 1.71 196.75"
/>
<path stroke="#808080" vector-effect="non-scaling-stroke" d="
  M 1.71 196.75
  L 1.65 199.43
  Q 1.64 200.00 2.21 200.00
  L 197.70 200.00
  Q 198.17 200.00 198.30 199.54
  Q 198.61 198.41 198.29 197.25"
/>
<path stroke="#e3e6e4" vector-effect="non-scaling-stroke" d="
  M 198.29 197.25
  Q 198.67 188.93 198.47 180.61
  C 198.44 179.15 199.16 177.79 199.18 176.25
  Q 199.40 162.62 199.17 149.00
  Q 199.15 147.70 198.25 145.46"
/>
<path stroke="#808080" vector-effect="non-scaling-stroke" d="
  M 198.25 145.46
  L 198.32 109.25"
/>
<path stroke="#e3e6e4" vector-effect="non-scaling-stroke" d="
  M 198.32 109.25
  C 198.63 107.02 199.50 104.69 199.48 102.54
  C 199.30 87.31 200.02 71.61 198.66 56.48
  C 198.50 54.71 198.02 47.58 198.94 46.31
  Q 199.22 45.91 199.23 45.43
  C 199.42 33.84 199.09 22.21 199.43 10.65
  Q 199.55 6.64 198.46 2.75"
/>
<path stroke="#808080" vector-effect="non-scaling-stroke" d="
  M 198.46 2.75
  Q 198.15 1.34 196.50 1.71"
/>
<path stroke="#e3e6e4" vector-effect="non-scaling-stroke" d="
  M 196.50 1.71
  Q 196.60 1.38 196.48 1.01
  Q 196.33 0.57 195.85 0.56
  L 164.11 0.47
  Q 163.68 0.47 163.43 0.81
  L 162.75 1.71"
/>
<path stroke="#646665" vector-effect="non-scaling-stroke" d="
  M 196.50 1.71
  Q 179.63 2.42 162.75 1.71"
/>
<path stroke="#646665" vector-effect="non-scaling-stroke" d="
  M 198.46 2.75
  L 198.32 109.25"
/>
<path stroke="#646665" vector-effect="non-scaling-stroke" d="
  M 198.25 145.46
  L 198.29 197.25"
/>
<path stroke="#646665" vector-effect="non-scaling-stroke" d="
  M 1.71 196.75
  L 1.71 85.75"
/>
<path stroke="#444543" stroke-opacity="0.992" vector-effect="non-scaling-stroke" d="
  M 1.71 85.75
  Q 2.29 52.62 1.76 19.50"
/>
<path stroke="#646665" vector-effect="non-scaling-stroke" d="
  M 1.76 19.50
  L 1.71 2.50"
/>
<path stroke="#a8aca8" stroke-opacity="0.992" vector-effect="non-scaling-stroke" d="
  M 1.76 19.50
  Q 1.15 52.63 1.71 85.75"
/>
<path stroke="#808080" vector-effect="non-scaling-stroke" d="
  M 75.58 97.48
  L 120.96 97.49
  A 0.29 0.29 0.0 0 1 121.25 97.78
  L 121.25 189.20
  Q 121.25 189.83 121.87 189.92
  L 122.66 190.03
  Q 123.46 190.13 123.46 189.33
  L 123.52 12.29
  Q 123.52 11.81 123.05 11.69
  C 105.99 7.32 90.48 8.32 73.50 11.63
  Q 73.00 11.73 73.00 12.24
  L 73.00 189.25
  Q 73.00 189.75 73.50 189.75
  L 74.34 189.75
  Q 74.94 189.75 74.94 189.15
  L 75.20 97.85
  Q 75.21 97.48 75.58 97.48"
/>
<path stroke="#808080" vector-effect="non-scaling-stroke" d="
  M 55.70 30.59
  C 53.21 22.61 43.82 12.13 34.18 12.04
  Q 23.19 11.95 12.24 12.02
  A 0.42 0.41 -90.0 0 0 11.83 12.44
  L 11.81 96.69
  Q 11.81 97.13 12.36 97.14
  Q 21.82 97.39 31.28 97.13
  C 43.00 96.80 52.46 89.46 55.73 78.48
  C 58.41 69.48 56.95 54.62 57.00 44.07
  Q 57.04 34.89 55.70 30.59"
/>
<path stroke="#808080" vector-effect="non-scaling-stroke" d="
  M 186.25 56.75
  L 186.25 94.72
  Q 186.25 95.25 185.72 95.25
  L 139.66 95.25
  Q 139.08 95.25 139.08 95.84
  L 139.21 189.10
  Q 139.21 189.75 139.86 189.75
  L 142.25 189.75
  Q 142.74 189.75 142.74 189.25
  L 142.77 97.87
  Q 142.77 97.25 143.38 97.25
  L 150.00 97.25
  Q 150.50 97.25 150.50 97.75
  L 150.50 189.30
  Q 150.50 189.86 151.05 189.83
  L 153.77 189.72
  Q 154.25 189.70 154.25 189.23
  L 154.25 97.81
  A 0.44 0.44 0.0 0 1 154.69 97.37
  L 160.88 97.28
  Q 162.00 97.26 162.00 98.38
  L 162.00 189.25
  Q 162.00 189.75 162.50 189.75
  L 165.12 189.75
  Q 165.74 189.75 165.74 189.13
  L 165.77 97.96
  Q 165.77 97.44 166.29 97.44
  L 172.80 97.40
  Q 173.21 97.40 173.21 97.80
  L 173.58 189.48
  Q 173.58 189.95 174.04 189.91
  L 176.43 189.70
  Q 177.01 189.65 177.01 189.07
  L 177.31 97.84
  Q 177.31 97.24 177.91 97.25
  L 184.06 97.36
  Q 184.75 97.37 184.75 98.06
  L 184.75 189.06
  Q 184.75 189.64 185.32 189.68
  L 187.91 189.89
  Q 188.50 189.94 188.50 189.35
  L 188.50 54.75
  A 0.50 0.50 0.0 0 0 188.00 54.25
  L 141.75 54.25
  A 0.50 0.50 0.0 0 1 141.25 53.75
  L 141.25 15.00
  A 0.50 0.50 0.0 0 1 141.75 14.50
  L 187.87 14.50
  Q 188.50 14.50 188.50 13.88
  L 188.50 13.21
  Q 188.50 12.69 188.04 12.45
  Q 187.30 12.07 186.70 12.36
  Q 186.36 12.52 185.99 12.52
  L 139.87 12.17
  Q 139.16 12.16 139.16 12.88
  L 138.96 55.60
  Q 138.96 56.25 139.60 56.25
  L 185.75 56.25
  Q 186.25 56.25 186.25 56.75"
/>
<path stroke="#808080" vector-effect="non-scaling-stroke" d="
  M 38.34 152.94
  L 54.83 189.69
  Q 55.12 190.32 55.72 189.97
  L 56.15 189.73
  Q 56.66 189.43 56.42 188.89
  L 40.18 152.66
  Q 39.94 152.11 40.51 151.96
  Q 53.10 148.50 55.94 136.01
  C 59.38 120.88 52.80 104.16 35.24 103.54
  Q 30.47 103.37 12.21 103.55
  Q 11.75 103.56 11.75 104.02
  L 11.75 188.96
  Q 11.75 189.30 11.97 189.57
  Q 12.62 190.39 13.16 189.72
  Q 13.46 189.34 13.47 188.85
  L 13.73 153.25
  A 0.59 0.58 -88.2 0 1 14.35 152.66
  Q 25.99 153.41 37.63 152.52
  Q 38.13 152.48 38.34 152.94"
/>
<path stroke="#808080" vector-effect="non-scaling-stroke" d="
  M 120.63 13.18
  C 105.03 9.73 91.15 10.39 75.76 13.32
  A 1.01 1.01 0.0 0 0 74.94 14.39
  Q 75.18 17.51 75.19 20.50
  Q 75.27 57.54 74.93 94.64
  A 0.60 0.59 -89.5 0 0 75.52 95.25
  L 120.75 95.25
  Q 121.25 95.25 121.25 94.75
  L 121.25 13.96
  Q 121.25 13.32 120.63 13.18"
/>
<path stroke="#808080" vector-effect="non-scaling-stroke" d="
  M 13.88 14.50
  L 13.60 94.74
  A 0.68 0.68 0.0 0 0 14.28 95.42
  L 30.30 95.48
  A 25.00 24.70 -89.8 0 0 55.08 70.56
  L 55.20 38.96
  A 25.00 24.70 -89.8 0 0 30.58 13.88
  L 14.56 13.82
  A 0.68 0.68 0.0 0 0 13.88 14.50"
/>
<path stroke="#808080" vector-effect="non-scaling-stroke" d="
  M 13.70 105.70
  L 13.78 150.58
  A 0.25 0.25 0.0 0 0 14.03 150.83
  L 34.59 150.79
  A 20.23 19.90 -0.1 0 0 54.78 130.85
  L 54.78 125.27
  A 20.23 19.90 -0.1 0 0 34.51 105.41
  L 13.95 105.45
  A 0.25 0.25 0.0 0 0 13.70 105.70"
/>
</g>
<path fill="#ffffff" d="
  M 0.00 0.00
  L 200.00 0.00
  L 200.00 202.00
  L 197.44 202.00
  Q 197.75 201.95 197.93 201.73
  Q 198.28 201.30 197.73 201.28
  Q 194.11 201.13 187.00 201.13
  Q 107.47 201.15 27.94 201.09
  C 19.51 201.08 10.63 200.58 2.25 201.26
  Q -1.51 201.56 2.30 201.57
  C 62.76 201.74 123.22 201.74 183.68 201.68
  C 187.53 201.68 192.56 201.23 197.19 202.00
  L 0.00 202.00
  L 0.00 0.00
  Z
  M 162.75 1.71
  L 2.71 1.78
  Q 2.26 1.78 1.99 2.14
  L 1.71 2.50
  Q 1.51 2.43 1.34 2.48
  Q 0.92 2.59 0.95 3.02
  C 1.55 12.64 0.50 23.84 0.48 31.61
  C 0.39 63.87 1.06 96.15 0.63 128.40
  C 0.52 136.13 1.43 145.96 0.93 154.83
  C 0.70 158.93 1.33 163.18 1.09 167.49
  C 0.58 177.01 -0.14 187.33 1.71 196.75
  L 1.65 199.43
  Q 1.64 200.00 2.21 200.00
  L 197.70 200.00
  Q 198.17 200.00 198.30 199.54
  Q 198.61 198.41 198.29 197.25
  Q 198.67 188.93 198.47 180.61
  C 198.44 179.15 199.16 177.79 199.18 176.25
  Q 199.40 162.62 199.17 149.00
  Q 199.15 147.70 198.25 145.46
  L 198.32 109.25
  C 198.63 107.02 199.50 104.69 199.48 102.54
  C 199.30 87.31 200.02 71.61 198.66 56.48
  C 198.50 54.71 198.02 47.58 198.94 46.31
  Q 199.22 45.91 199.23 45.43
  C 199.42 33.84 199.09 22.21 199.43 10.65
  Q 199.55 6.64 198.46 2.75
  Q 198.15 1.34 196.50 1.71
  Q 196.60 1.38 196.48 1.01
  Q 196.33 0.57 195.85 0.56
  L 164.11 0.47
  Q 163.68 0.47 163.43 0.81
  L 162.75 1.71
  Z"
/>
<path fill="#c7ccc9" d="
  M 196.50 1.71
  Q 179.63 2.42 162.75 1.71
  L 163.43 0.81
  Q 163.68 0.47 164.11 0.47
  L 195.85 0.56
  Q 196.33 0.57 196.48 1.01
  Q 196.60 1.38 196.50 1.71
  Z"
/>
<path fill="#000000" d="
  M 162.75 1.71
  Q 179.63 2.42 196.50 1.71
  Q 198.15 1.34 198.46 2.75
  L 198.32 109.25
  L 198.25 145.46
  L 198.29 197.25
  Q 198.61 198.41 198.30 199.54
  Q 198.17 200.00 197.70 200.00
  L 2.21 200.00
  Q 1.64 200.00 1.65 199.43
  L 1.71 196.75
  L 1.71 85.75
  Q 2.29 52.62 1.76 19.50
  L 1.71 2.50
  L 1.99 2.14
  Q 2.26 1.78 2.71 1.78
  L 162.75 1.71
  Z
  M 75.58 97.48
  L 120.96 97.49
  A 0.29 0.29 0.0 0 1 121.25 97.78
  L 121.25 189.20
  Q 121.25 189.83 121.87 189.92
  L 122.66 190.03
  Q 123.46 190.13 123.46 189.33
  L 123.52 12.29
  Q 123.52 11.81 123.05 11.69
  C 105.99 7.32 90.48 8.32 73.50 11.63
  Q 73.00 11.73 73.00 12.24
  L 73.00 189.25
  Q 73.00 189.75 73.50 189.75
  L 74.34 189.75
  Q 74.94 189.75 74.94 189.15
  L 75.20 97.85
  Q 75.21 97.48 75.58 97.48
  Z
  M 55.70 30.59
  C 53.21 22.61 43.82 12.13 34.18 12.04
  Q 23.19 11.95 12.24 12.02
  A 0.42 0.41 -90.0 0 0 11.83 12.44
  L 11.81 96.69
  Q 11.81 97.13 12.36 97.14
  Q 21.82 97.39 31.28 97.13
  C 43.00 96.80 52.46 89.46 55.73 78.48
  C 58.41 69.48 56.95 54.62 57.00 44.07
  Q 57.04 34.89 55.70 30.59
  Z
  M 186.25 56.75
  L 186.25 94.72
  Q 186.25 95.25 185.72 95.25
  L 139.66 95.25
  Q 139.08 95.25 139.08 95.84
  L 139.21 189.10
  Q 139.21 189.75 139.86 189.75
  L 142.25 189.75
  Q 142.74 189.75 142.74 189.25
  L 142.77 97.87
  Q 142.77 97.25 143.38 97.25
  L 150.00 97.25
  Q 150.50 97.25 150.50 97.75
  L 150.50 189.30
  Q 150.50 189.86 151.05 189.83
  L 153.77 189.72
  Q 154.25 189.70 154.25 189.23
  L 154.25 97.81
  A 0.44 0.44 0.0 0 1 154.69 97.37
  L 160.88 97.28
  Q 162.00 97.26 162.00 98.38
  L 162.00 189.25
  Q 162.00 189.75 162.50 189.75
  L 165.12 189.75
  Q 165.74 189.75 165.74 189.13
  L 165.77 97.96
  Q 165.77 97.44 166.29 97.44
  L 172.80 97.40
  Q 173.21 97.40 173.21 97.80
  L 173.58 189.48
  Q 173.58 189.95 174.04 189.91
  L 176.43 189.70
  Q 177.01 189.65 177.01 189.07
  L 177.31 97.84
  Q 177.31 97.24 177.91 97.25
  L 184.06 97.36
  Q 184.75 97.37 184.75 98.06
  L 184.75 189.06
  Q 184.75 189.64 185.32 189.68
  L 187.91 189.89
  Q 188.50 189.94 188.50 189.35
  L 188.50 54.75
  A 0.50 0.50 0.0 0 0 188.00 54.25
  L 141.75 54.25
  A 0.50 0.50 0.0 0 1 141.25 53.75
  L 141.25 15.00
  A 0.50 0.50 0.0 0 1 141.75 14.50
  L 187.87 14.50
  Q 188.50 14.50 188.50 13.88
  L 188.50 13.21
  Q 188.50 12.69 188.04 12.45
  Q 187.30 12.07 186.70 12.36
  Q 186.36 12.52 185.99 12.52
  L 139.87 12.17
  Q 139.16 12.16 139.16 12.88
  L 138.96 55.60
  Q 138.96 56.25 139.60 56.25
  L 185.75 56.25
  Q 186.25 56.25 186.25 56.75
  Z
  M 38.34 152.94
  L 54.83 189.69
  Q 55.12 190.32 55.72 189.97
  L 56.15 189.73
  Q 56.66 189.43 56.42 188.89
  L 40.18 152.66
  Q 39.94 152.11 40.51 151.96
  Q 53.10 148.50 55.94 136.01
  C 59.38 120.88 52.80 104.16 35.24 103.54
  Q 30.47 103.37 12.21 103.55
  Q 11.75 103.56 11.75 104.02
  L 11.75 188.96
  Q 11.75 189.30 11.97 189.57
  Q 12.62 190.39 13.16 189.72
  Q 13.46 189.34 13.47 188.85
  L 13.73 153.25
  A 0.59 0.58 -88.2 0 1 14.35 152.66
  Q 25.99 153.41 37.63 152.52
  Q 38.13 152.48 38.34 152.94
  Z"
/>
<path fill="#c7ccc9" d="
  M 1.71 2.50
  L 1.76 19.50
  Q 1.15 52.63 1.71 85.75
  L 1.71 196.75
  C -0.14 187.33 0.58 177.01 1.09 167.49
  C 1.33 163.18 0.70 158.93 0.93 154.83
  C 1.43 145.96 0.52 136.13 0.63 128.40
  C 1.06 96.15 0.39 63.87 0.48 31.61
  C 0.50 23.84 1.55 12.64 0.95 3.02
  Q 0.92 2.59 1.34 2.48
  Q 1.51 2.43 1.71 2.50
  Z"
/>
<path fill="#c7ccc9" d="
  M 198.46 2.75
  Q 199.55 6.64 199.43 10.65
  C 199.09 22.21 199.42 33.84 199.23 45.43
  Q 199.22 45.91 198.94 46.31
  C 198.02 47.58 198.50 54.71 198.66 56.48
  C 200.02 71.61 199.30 87.31 199.48 102.54
  C 199.50 104.69 198.63 107.02 198.32 109.25
  L 198.46 2.75
  Z"
/>
<path fill="#ffffff" d="
  M 75.20 97.85
  L 74.94 189.15
  Q 74.94 189.75 74.34 189.75
  L 73.50 189.75
  Q 73.00 189.75 73.00 189.25
  L 73.00 12.24
  Q 73.00 11.73 73.50 11.63
  C 90.48 8.32 105.99 7.32 123.05 11.69
  Q 123.52 11.81 123.52 12.29
  L 123.46 189.33
  Q 123.46 190.13 122.66 190.03
  L 121.87 189.92
  Q 121.25 189.83 121.25 189.20
  L 121.25 97.78
  A 0.29 0.29 0.0 0 0 120.96 97.49
  L 75.58 97.48
  Q 75.21 97.48 75.20 97.85
  Z
  M 120.63 13.18
  C 105.03 9.73 91.15 10.39 75.76 13.32
  A 1.01 1.01 0.0 0 0 74.94 14.39
  Q 75.18 17.51 75.19 20.50
  Q 75.27 57.54 74.93 94.64
  A 0.60 0.59 -89.5 0 0 75.52 95.25
  L 120.75 95.25
  Q 121.25 95.25 121.25 94.75
  L 121.25 13.96
  Q 121.25 13.32 120.63 13.18
  Z"
/>
<path fill="#000000" d="
  M 75.76 13.32
  C 91.15 10.39 105.03 9.73 120.63 13.18
  Q 121.25 13.32 121.25 13.96
  L 121.25 94.75
  Q 121.25 95.25 120.75 95.25
  L 75.52 95.25
  A 0.60 0.59 -89.5 0 1 74.93 94.64
  Q 75.27 57.54 75.19 20.50
  Q 75.18 17.51 74.94 14.39
  A 1.01 1.01 0.0 0 1 75.76 13.32
  Z"
/>
<path fill="#ffffff" d="
  M 34.18 12.04
  C 43.82 12.13 53.21 22.61 55.70 30.59
  Q 57.04 34.89 57.00 44.07
  C 56.95 54.62 58.41 69.48 55.73 78.48
  C 52.46 89.46 43.00 96.80 31.28 97.13
  Q 21.82 97.39 12.36 97.14
  Q 11.81 97.13 11.81 96.69
  L 11.83 12.44
  A 0.42 0.41 -90.0 0 1 12.24 12.02
  Q 23.19 11.95 34.18 12.04
  Z
  M 13.88 14.50
  L 13.60 94.74
  A 0.68 0.68 0.0 0 0 14.28 95.42
  L 30.30 95.48
  A 25.00 24.70 -89.8 0 0 55.08 70.56
  L 55.20 38.96
  A 25.00 24.70 -89.8 0 0 30.58 13.88
  L 14.56 13.82
  A 0.68 0.68 0.0 0 0 13.88 14.50
  Z"
/>
<path fill="#ffffff" d="
  M 185.75 56.25
  L 139.60 56.25
  Q 138.96 56.25 138.96 55.60
  L 139.16 12.88
  Q 139.16 12.16 139.87 12.17
  L 185.99 12.52
  Q 186.36 12.52 186.70 12.36
  Q 187.30 12.07 188.04 12.45
  Q 188.50 12.69 188.50 13.21
  L 188.50 13.88
  Q 188.50 14.50 187.87 14.50
  L 141.75 14.50
  A 0.50 0.50 0.0 0 0 141.25 15.00
  L 141.25 53.75
  A 0.50 0.50 0.0 0 0 141.75 54.25
  L 188.00 54.25
  A 0.50 0.50 0.0 0 1 188.50 54.75
  L 188.50 189.35
  Q 188.50 189.94 187.91 189.89
  L 185.32 189.68
  Q 184.75 189.64 184.75 189.06
  L 184.75 98.06
  Q 184.75 97.37 184.06 97.36
  L 177.91 97.25
  Q 177.31 97.24 177.31 97.84
  L 177.01 189.07
  Q 177.01 189.65 176.43 189.70
  L 174.04 189.91
  Q 173.58 189.95 173.58 189.48
  L 173.21 97.80
  Q 173.21 97.40 172.80 97.40
  L 166.29 97.44
  Q 165.77 97.44 165.77 97.96
  L 165.74 189.13
  Q 165.74 189.75 165.12 189.75
  L 162.50 189.75
  Q 162.00 189.75 162.00 189.25
  L 162.00 98.38
  Q 162.00 97.26 160.88 97.28
  L 154.69 97.37
  A 0.44 0.44 0.0 0 0 154.25 97.81
  L 154.25 189.23
  Q 154.25 189.70 153.77 189.72
  L 151.05 189.83
  Q 150.50 189.86 150.50 189.30
  L 150.50 97.75
  Q 150.50 97.25 150.00 97.25
  L 143.38 97.25
  Q 142.77 97.25 142.77 97.87
  L 142.74 189.25
  Q 142.74 189.75 142.25 189.75
  L 139.86 189.75
  Q 139.21 189.75 139.21 189.10
  L 139.08 95.84
  Q 139.08 95.25 139.66 95.25
  L 185.72 95.25
  Q 186.25 95.25 186.25 94.72
  L 186.25 56.75
  Q 186.25 56.25 185.75 56.25
  Z"
/>
<path fill="#000000" d="
  M 13.88 14.50
  A 0.68 0.68 0.0 0 1 14.56 13.82
  L 30.58 13.88
  A 25.00 24.70 -89.8 0 1 55.20 38.96
  L 55.08 70.56
  A 25.00 24.70 -89.8 0 1 30.30 95.48
  L 14.28 95.42
  A 0.68 0.68 0.0 0 1 13.60 94.74
  L 13.88 14.50
  Z"
/>
<path fill="#898b87" fill-opacity="0.984" d="
  M 1.76 19.50
  Q 2.29 52.62 1.71 85.75
  Q 1.15 52.63 1.76 19.50
  Z"
/>
<path fill="#ffffff" d="
  M 37.63 152.52
  Q 25.99 153.41 14.35 152.66
  A 0.59 0.58 -88.2 0 0 13.73 153.25
  L 13.47 188.85
  Q 13.46 189.34 13.16 189.72
  Q 12.62 190.39 11.97 189.57
  Q 11.75 189.30 11.75 188.96
  L 11.75 104.02
  Q 11.75 103.56 12.21 103.55
  Q 30.47 103.37 35.24 103.54
  C 52.80 104.16 59.38 120.88 55.94 136.01
  Q 53.10 148.50 40.51 151.96
  Q 39.94 152.11 40.18 152.66
  L 56.42 188.89
  Q 56.66 189.43 56.15 189.73
  L 55.72 189.97
  Q 55.12 190.32 54.83 189.69
  L 38.34 152.94
  Q 38.13 152.48 37.63 152.52
  Z
  M 13.70 105.70
  L 13.78 150.58
  A 0.25 0.25 0.0 0 0 14.03 150.83
  L 34.59 150.79
  A 20.23 19.90 -0.1 0 0 54.78 130.85
  L 54.78 125.27
  A 20.23 19.90 -0.1 0 0 34.51 105.41
  L 13.95 105.45
  A 0.25 0.25 0.0 0 0 13.70 105.70
  Z"
/>
<path fill="#000000" d="
  M 13.70 105.70
  A 0.25 0.25 0.0 0 1 13.95 105.45
  L 34.51 105.41
  A 20.23 19.90 -0.1 0 1 54.78 125.27
  L 54.78 130.85
  A 20.23 19.90 -0.1 0 1 34.59 150.79
  L 14.03 150.83
  A 0.25 0.25 0.0 0 1 13.78 150.58
  L 13.70 105.70
  Z"
/>
<path fill="#c7ccc9" d="
  M 198.25 145.46
  Q 199.15 147.70 199.17 149.00
  Q 199.40 162.62 199.18 176.25
  C 199.16 177.79 198.44 179.15 198.47 180.61
  Q 198.67 188.93 198.29 197.25
  L 198.25 145.46
  Z"
/>
<path fill="#898b87" fill-opacity="0.984" d="
  M 197.44 202.00
  Q 197.31 202.00 197.19 202.00
  C 192.56 201.23 187.53 201.68 183.68 201.68
  C 123.22 201.74 62.76 201.74 2.30 201.57
  Q -1.51 201.56 2.25 201.26
  C 10.63 200.58 19.51 201.08 27.94 201.09
  Q 107.47 201.15 187.00 201.13
  Q 194.11 201.13 197.73 201.28
  Q 198.28 201.30 197.93 201.73
  Q 197.75 201.95 197.44 202.00
  Z"
/>
</svg>
